{
  "asset": {
    "generator": "Khronos glTF Blender I/O v4.3.47",
    "version": "2.0"
  },
  "scene": 0,
  "scenes": [
    {
      "name": "Scene",
      "nodes": [
        0
      ]
    }
  ],
  "nodes": [
    {
      "mesh": 0,
      "name": "sphere_gltf"
    }
  ],
  "materials": [
    {
      "doubleSided": true,
      "name": "rusty_metal_04",
      "normalTexture": {
        "index": 0
      },
      "pbrMetallicRoughness": {
        "baseColorTexture": {
          "index": 1
        },
        "metallicRoughnessTexture": {
          "index": 2
        }
      }
    }
  ],
  "meshes": [
    {
      "name": "Sphere.001",
      "primitives": [
        {
          "attributes": {
            "POSITION": 0,
            "NORMAL": 1,
            "TEXCOORD_0": 2
          },
          "indices": 3,
          "material": 0
        }
      ]
    }
  ],
  "textures": [
    {
      "sampler": 0,
      "source": 0
    },
    {
      "sampler": 0,
      "source": 1
    },
    {
      "sampler": 0,
      "source": 2
    }
  ],
  "images": [
    {
      "mimeType": "image/jpeg",
      "name": "rusty_metal_04_nor_gl",
      "uri": "textures/rusty_metal_04_nor_gl_1k.jpg"
    },
    {
      "mimeType": "image/jpeg",
      "name": "rusty_metal_04_diff",
      "uri": "textures/rusty_metal_04_diff_1k.jpg"
    },
    {
      "mimeType": "image/jpeg",
      "name": "rusty_metal_04_metal-rusty_metal_04_rough",
      "uri": "textures/rusty_metal_04_arm_1k.jpg"
    }
  ],
  "accessors": [
    {
      "bufferView": 0,
      "componentType": 5126,
      "count": 53909,
      "max": [
        0.999668538570404,
        1.0013246536254883,
        0.9997603893280029
      ],
      "min": [
        -0.9996707439422607,
        -1.0013242959976196,
        -0.9997634291648865
      ],
      "type": "VEC3"
    },
    {
      "bufferView": 1,
      "componentType": 5126,
      "count": 53909,
      "type": "VEC3"
    },
    {
      "bufferView": 2,
      "componentType": 5126,
      "count": 53909,
      "type": "VEC2"
    },
    {
      "bufferView": 3,
      "componentType": 5123,
      "count": 322170,
      "type": "SCALAR"
    }
  ],
  "bufferViews": [
    {
      "buffer": 0,
      "byteLength": 646908,
      "byteOffset": 0,
      "target": 34962
    },
    {
      "buffer": 0,
      "byteLength": 646908,
      "byteOffset": 646908,
      "target": 34962
    },
    {
      "buffer": 0,
      "byteLength": 431272,
      "byteOffset": 1293816,
      "target": 34962
    },
    {
      "buffer": 0,
      "byteLength": 644340,
      "byteOffset": 1725088,
      "target": 34963
    }
  ],
  "samplers": [
    {
      "magFilter": 9729,
      "minFilter": 9987
    }
  ],
  "buffers": [
    {
      "byteLength": 2369428,
      "uri": "rusty_metal_04.bin"
    }
  ]
}